Coordinates
version=1
nRows=16
nColumns=28
inDegrees=yes

Units are S.I. units (second, meters, Newtons, ...)
Angles are in degrees.

endheader
time	pelvis_tilt	pelvis_list	pelvis_rotation	pelvis_tx	pelvis_ty	pelvis_tz	hip_flexion_r	hip_adduction_r	hip_rotation_r	knee_angle_r	ankle_angle_r	subtalar_angle_r	mtp_angle_r	hip_flexion_l	hip_adduction_l	hip_rotation_l	knee_angle_l	socket_flexion	socket_adduction	socket_rotation	socket_tx	socket_ty	socket_tz	foot_flex	lumbar_extension	lumbar_bending	lumbar_rotation
      0.63333333	     -2.49855812	     -2.37398805	      9.73298083	     -0.04028871	      0.98673181	      0.29065089	     27.43670506	      1.14621363	     -8.47160960	     -6.52451372	     10.96667418	    -21.42739386	     -8.74500561	    -23.49425847	     -5.84980551	     18.32776158	      8.58118986	     10.43804835	      0.00000000	      0.00000000	      0.00000000	      0.00000000	      0.00000000	      7.87696423	     -8.03596311	      2.45537396	     -7.61546881
      0.63750000	     -2.48754008	     -2.47607488	      9.70740205	     -0.03370446	      0.98572290	      0.29082220	     27.76697161	      1.30370151	     -8.28162240	     -7.58187424	     10.67012637	    -21.51691924	     -8.64685866	    -23.77111639	     -5.96437938	     18.23732999	      8.40670176	     10.51259196	      0.00000000	      0.00000000	      0.00000000	      0.00000000	      0.00000000	      7.82141743	     -7.97040034	      2.69154249	     -7.75090944
      0.64166667	     -2.38716110	     -2.63527335	      9.54042862	     -0.02698944	      0.98477641	      0.29118557	     28.01816355	      1.59435807	     -8.04404501	     -8.64909873	     10.31265259	    -21.46025475	     -8.27890881	    -24.17743716	     -6.08148922	     17.88874741	      8.22938985	     10.58210782	      0.00000000	      0.00000000	      0.00000000	      0.00000000	      0.00000000	      7.76887929	     -7.99545660	      2.96377195	     -7.62284644
      0.64583333	     -2.24397770	     -2.70813272	      9.49349372	     -0.02027526	      0.98394275	      0.29129702	     28.20025867	      1.71047980	     -8.05952414	     -9.68387128	      8.96080884	    -21.75390434	     -3.99767661	    -24.59058363	     -6.15784474	     17.76775410	      8.01559018	     10.64772374	      0.00000000	      0.00000000	      0.00000000	      0.00000000	      0.00000000	      7.64461426	     -8.07073630	      3.18990767	     -7.49658488
      0.65000000	     -2.20459225	     -2.78674558	      9.48625741	     -0.01365713	      0.98312397	      0.29148460	     28.47220799	      1.84081204	     -7.90382009	    -10.74147470	      8.49414289	    -21.88298592	     -4.01642781	    -24.81928547	     -6.23890525	     17.71626163	      7.69219370	     10.69419544	      0.00000000	      0.00000000	      0.00000000	      0.00000000	      0.00000000	      7.48234628	     -8.04086342	      3.39796201	     -7.66305082
      0.65416667	     -2.16245032	     -2.93290051	      9.25771990	     -0.00684973	      0.98220153	      0.29191319	     28.78853202	      2.13121584	     -7.60649989	    -11.88060271	      8.15270206	    -21.78379899	     -3.67582418	    -25.10771508	     -6.27727326	     17.33700051	      7.37605624	     10.73849991	      0.00000000	      0.00000000	      0.00000000	      0.00000000	      0.00000000	      7.40938758	     -7.98600465	      3.67171312	     -7.50593252
      0.65833333	     -2.11795165	     -3.05036287	      9.10922000	     -0.00006348	      0.98140153	      0.29228704	     29.05988082	      2.35534466	     -7.39899610	    -12.96628034	      7.67667137	    -21.73348022	     -3.19573106	    -25.34456710	     -6.32096188	     17.08655316	      6.99574998	     10.78074893	      0.00000000	      0.00000000	      0.00000000	      0.00000000	      0.00000000	      7.22149727	     -7.94169445	      3.90497219	     -7.37656090
      0.66250000	     -1.83826695	     -3.15736944	      8.98270315	      0.00672695	      0.98095656	      0.29255677	     29.07553602	      2.55358523	     -7.43205756	    -13.99922270	      6.31077268	    -22.04617911	      0.89086237	    -25.81449591	     -6.37711897	     16.80524639	      6.58003633	     10.81432685	      0.00000000	      0.00000000	      0.00000000	      0.00000000	      0.00000000	      7.02379488	     -8.18417553	      4.14794688	     -7.13713771
      0.66666667	     -1.72792449	     -3.29271687	      8.87271266	      0.01353369	      0.98039227	      0.29283043	     29.26054432	      2.77289405	     -7.31183447	    -15.08688206	      5.87776470	    -21.99610037	      0.90828122	    -26.04151467	     -6.43202394	     16.53380999	      6.06149820	     10.82874094	      0.00000000	      0.00000000	      0.00000000	      0.00000000	      0.00000000	      6.81754153	     -8.22053402	      4.43029370	     -7.14031073
      0.67083333	     -1.64505435	     -3.45335775	      8.86510286	      0.02028984	      0.97999396	      0.29304008	     29.34121307	      3.01156341	     -7.08648677	    -15.93378315	      5.61273463	    -21.93962763	      0.92098163	    -26.17362749	     -6.57432257	     16.57106342	      5.49619933	     10.85405783	      0.00000000	      0.00000000	      0.00000000	      0.00000000	      0.00000000	      6.55212783	     -8.22232680	      4.73041910	     -7.12065231
      0.67500000	     -1.48700516	     -3.56068544	      8.59199106	      0.02723595	      0.97953886	      0.29353701	     29.52838822	      3.24973755	     -7.07172659	    -17.14785523	      5.11702720	    -21.85648719	      1.03232547	    -26.43386531	     -6.50503946	     16.01595297	      4.85595104	     10.85442113	      0.00000000	      0.00000000	      0.00000000	      0.00000000	      0.00000000	      6.31838495	     -8.28777054	      4.96092612	     -7.05264838
      0.67916667	     -1.30710000	     -3.62387851	      8.23453342	      0.03407962	      0.97912466	      0.29423139	     29.64102430	      3.51512898	     -6.78719781	    -18.27628460	      4.76705307	    -21.56724798	      2.12828493	    -26.73006657	     -6.37822496	     15.57502150	      4.25286702	     10.87932826	      0.00000000	      0.00000000	      0.00000000	      0.00000000	      0.00000000	      6.02820094	     -8.44617906	      5.08444239	     -6.41878790
      0.68333333	     -1.17264859	     -3.78131593	      8.12360257	      0.04103896	      0.97891378	      0.29446056	     29.70713513	      3.73540524	     -6.81990022	    -19.24668924	      4.35710199	    -21.52290098	      2.25116994	    -26.83604237	     -6.41517366	     15.26421664	      3.46392469	     10.87494874	      0.00000000	      0.00000000	      0.00000000	      0.00000000	      0.00000000	      5.71979009	     -8.47586038	      5.38788894	     -6.48404863
      0.68750000	     -1.05395565	     -3.95097237	      8.04573602	      0.04792571	      0.97878654	      0.29471079	     29.71906496	      3.97994944	     -6.71516917	    -20.09229620	      4.10011003	    -21.45932954	      2.32406054	    -26.89877128	     -6.49695286	     15.14982169	      2.68241548	     10.87812215	      0.00000000	      0.00000000	      0.00000000	      0.00000000	      0.00000000	      5.34951814	     -8.49978309	      5.70045197	     -6.46564572
      0.69166667	     -0.75492490	     -4.02841932	      7.81068606	      0.05493265	      0.97876548	      0.29500679	     29.64793312	      4.11506656	     -6.95308913	    -21.15759068	      3.32562942	    -21.12592262	      5.39438023	    -27.17594517	     -6.39332853	     14.67619687	      1.83615061	     10.88360476	      0.00000000	      0.00000000	      0.00000000	      0.00000000	      0.00000000	      5.02938227	     -8.74548350	      5.90874854	     -6.25378701
      0.69583333	     -0.62424710	     -4.19703420	      7.69124787	      0.06196092	      0.97877734	      0.29525574	     29.61197142	      4.35160433	     -6.95071821	    -21.97032909	      3.08525589	    -21.09787982	      5.39883847	    -27.17526601	     -6.42210520	     14.38424800	      0.88259845	     10.85833791	      0.00000000	      0.00000000	      0.00000000	      0.00000000	      0.00000000	      4.63509878	     -8.76717893	      6.20869905	     -6.21695232
